<svg width="40" height="40" viewBox="0 0 40 40" fill="none" xmlns="http://www.w3.org/2000/svg">
<path d="M37.3266 11.835C37.3074 11.835 37.2882 11.8542 37.2499 11.8542H29.5833C29.3916 11.8542 29.2191 11.8158 29.0274 11.7392C28.6744 11.5876 28.3932 11.3063 28.2416 10.9533C28.1803 10.7809 28.148 10.5996 28.1458 10.4167V2.74999C28.1458 2.73083 28.1649 2.71166 28.1649 2.67333C25.6733 1.50416 22.9133 0.833328 19.9999 0.833328C9.41992 0.833328 0.833252 9.41999 0.833252 20C0.833252 30.58 9.41992 39.1667 19.9999 39.1667C30.5799 39.1667 39.1666 30.58 39.1666 20C39.1666 17.0867 38.4958 14.3267 37.3266 11.835ZM23.3541 19.655C24.5808 20.0767 26.2291 20.9775 26.2291 23.795C26.2291 26.1908 24.3316 28.165 22.0124 28.165H21.4374V28.6442C21.4374 29.43 20.7858 30.0817 19.9999 30.0817C19.2141 30.0817 18.5624 29.43 18.5624 28.6442V28.165H18.4091C15.8599 28.165 13.7708 26.0183 13.7708 23.3733C13.7708 22.5683 14.4224 21.9167 15.2083 21.9167C15.9941 21.9167 16.6458 22.5683 16.6458 23.3542C16.6458 24.4083 17.4316 25.2708 18.4091 25.2708H18.5624V21.0158L16.6458 20.345C15.4191 19.9233 13.7708 19.0225 13.7708 16.205C13.7708 13.8092 15.6683 11.835 17.9874 11.835H18.5624V11.375C18.5624 10.5892 19.2141 9.93749 19.9999 9.93749C20.7858 9.93749 21.4374 10.5892 21.4374 11.375V11.8542H21.5908C24.1399 11.8542 26.2291 14.0008 26.2291 16.6458C26.2291 17.4317 25.5774 18.0833 24.7916 18.0833C24.0058 18.0833 23.3541 17.4317 23.3541 16.6458C23.3541 15.5917 22.5683 14.7292 21.5908 14.7292H21.4374V18.9842L23.3541 19.655Z" fill="#5BC7E6"/>
</svg>
