<svg width="44" height="44" viewBox="0 0 44 44" fill="none" xmlns="http://www.w3.org/2000/svg">
<g filter="url(#filter0_d_380_10106)">
<path d="M17.5 3.6V36H26.5V3.6C26.5 1.62 25.6 0 22.9 0H21.1C18.4 0 17.5 1.62 17.5 3.6ZM4 14.4V36H12V14.4C12 12.42 11.2 10.8 8.8 10.8H7.2C4.8 10.8 4 12.42 4 14.4ZM32 23.4V36H40V23.4C40 21.42 39.2 19.8 36.8 19.8H35.2C32.8 19.8 32 21.42 32 23.4Z" fill="#FF8F78"/>
</g>
<defs>
<filter id="filter0_d_380_10106" x="0" y="0" width="44" height="44" filterUnits="userSpaceOnUse" color-interpolation-filters="sRGB">
<feFlood flood-opacity="0" result="BackgroundImageFix"/>
<feColorMatrix in="SourceAlpha" type="matrix" values="0 0 0 0 0 0 0 0 0 0 0 0 0 0 0 0 0 0 127 0" result="hardAlpha"/>
<feOffset dy="4"/>
<feGaussianBlur stdDeviation="2"/>
<feComposite in2="hardAlpha" operator="out"/>
<feColorMatrix type="matrix" values="0 0 0 0 0 0 0 0 0 0 0 0 0 0 0 0 0 0 0.25 0"/>
<feBlend mode="normal" in2="BackgroundImageFix" result="effect1_dropShadow_380_10106"/>
<feBlend mode="normal" in="SourceGraphic" in2="effect1_dropShadow_380_10106" result="shape"/>
</filter>
</defs>
</svg>
