<svg width="36" height="36" viewBox="0 0 36 36" fill="none" xmlns="http://www.w3.org/2000/svg">
<path d="M28.7549 9.96C28.1099 6.705 25.6949 5.28 22.3349 5.28H9.16494C5.20494 5.28 2.56494 7.26 2.56494 11.88V19.605C2.56494 22.935 3.92994 24.885 6.17994 25.725C6.50994 25.845 6.86994 25.95 7.24494 26.01C7.84494 26.145 8.48994 26.205 9.16494 26.205H22.3499C26.3099 26.205 28.9499 24.225 28.9499 19.605V11.88C28.9499 11.175 28.8899 10.545 28.7549 9.96ZM8.29494 18C8.29494 18.615 7.78494 19.125 7.16994 19.125C6.55494 19.125 6.04494 18.615 6.04494 18V13.5C6.04494 12.885 6.55494 12.375 7.16994 12.375C7.78494 12.375 8.29494 12.885 8.29494 13.5V18ZM15.7499 19.71C13.5599 19.71 11.7899 17.94 11.7899 15.75C11.7899 13.56 13.5599 11.79 15.7499 11.79C17.9399 11.79 19.7099 13.56 19.7099 15.75C19.7099 17.94 17.9399 19.71 15.7499 19.71ZM25.4399 18C25.4399 18.615 24.9299 19.125 24.3149 19.125C23.6999 19.125 23.1899 18.615 23.1899 18V13.5C23.1899 12.885 23.6999 12.375 24.3149 12.375C24.9299 12.375 25.4399 12.885 25.4399 13.5V18Z" fill="#9F00AD"/>
<path d="M33.4531 16.377V24.102C33.4531 28.722 30.8131 30.717 26.8381 30.717H13.6681C12.5431 30.717 11.5381 30.552 10.6681 30.222C9.96307 29.967 9.34807 29.592 8.85307 29.112C8.58307 28.857 8.79307 28.452 9.16807 28.452H22.3381C27.8881 28.452 31.1881 25.152 31.1881 19.617V11.877C31.1881 11.517 31.5931 11.292 31.8481 11.562C32.8681 12.642 33.4531 14.217 33.4531 16.377Z" fill="#9F00AD"/>
</svg>
