<svg width="39" height="39" viewBox="0 0 39 39" fill="none" xmlns="http://www.w3.org/2000/svg">
<path d="M19.5 0.75C9.15 0.75 0.75 9.15 0.75 19.5C0.75 29.85 9.15 38.25 19.5 38.25C29.85 38.25 38.25 29.85 38.25 19.5C38.25 9.15 29.85 0.75 19.5 0.75ZM13.3687 11.3625C14.8875 11.3625 16.1438 12.6 16.1438 14.1375C16.1438 15.6563 14.9062 16.9125 13.3687 16.9125C11.85 16.9125 10.5938 15.675 10.5938 14.1375C10.5938 12.6 11.8312 11.3625 13.3687 11.3625ZM13.5938 26.625C13.3125 26.9062 12.9562 27.0375 12.6 27.0375C12.2437 27.0375 11.8875 26.9062 11.6062 26.625C11.3447 26.3604 11.1981 26.0033 11.1981 25.6313C11.1981 25.2592 11.3447 24.9021 11.6062 24.6375L23.8875 12.3562C24.4312 11.8125 25.3312 11.8125 25.875 12.3562C26.4187 12.9 26.4187 13.8 25.875 14.3438L13.5938 26.625ZM25.6313 27.6375C24.1125 27.6375 22.8563 26.4 22.8563 24.8625C22.8563 23.3438 24.0938 22.0875 25.6313 22.0875C27.15 22.0875 28.4062 23.325 28.4062 24.8625C28.4062 26.4 27.1688 27.6375 25.6313 27.6375Z" fill="#6D6FFF"/>
</svg>
