<svg width="46" height="46" viewBox="0 0 46 46" fill="none" xmlns="http://www.w3.org/2000/svg">
<path d="M31.1458 43.125C32.0353 43.125 32.8885 42.7716 33.5175 42.1426C34.1465 41.5136 34.4999 40.6604 34.4999 39.7708C34.4999 38.8813 34.1465 38.0281 33.5175 37.3991C32.8885 36.7701 32.0353 36.4167 31.1458 36.4167C30.2562 36.4167 29.403 36.7701 28.774 37.3991C28.145 38.0281 27.7916 38.8813 27.7916 39.7708C27.7916 40.6604 28.145 41.5136 28.774 42.1426C29.403 42.7716 30.2562 43.125 31.1458 43.125ZM15.8124 43.125C16.702 43.125 17.5551 42.7716 18.1842 42.1426C18.8132 41.5136 19.1666 40.6604 19.1666 39.7708C19.1666 38.8813 18.8132 38.0281 18.1842 37.3991C17.5551 36.7701 16.702 36.4167 15.8124 36.4167C14.9228 36.4167 14.0697 36.7701 13.4407 37.3991C12.8116 38.0281 12.4583 38.8813 12.4583 39.7708C12.4583 40.6604 12.8116 41.5136 13.4407 42.1426C14.0697 42.7716 14.9228 43.125 15.8124 43.125ZM9.27659 7.55167L8.89325 12.2475C8.81659 13.1483 9.52575 13.8958 10.4266 13.8958H39.7708C40.5758 13.8958 41.2466 13.2825 41.3041 12.4775C41.5533 9.085 38.9658 6.325 35.5733 6.325H12.0174C11.8258 5.48167 11.4424 4.67667 10.8483 4.00584C9.88992 2.99 8.54825 2.39584 7.16825 2.39584H3.83325C3.04742 2.39584 2.39575 3.0475 2.39575 3.83334C2.39575 4.61917 3.04742 5.27084 3.83325 5.27084H7.16825C7.76242 5.27084 8.31825 5.52 8.72075 5.94167C9.12325 6.3825 9.31492 6.9575 9.27659 7.55167ZM39.3108 16.7708H9.90909C9.10409 16.7708 8.45242 17.3842 8.37575 18.17L7.68575 26.5075C7.61995 27.28 7.71526 28.0578 7.96564 28.7915C8.21602 29.5253 8.61602 30.199 9.14032 30.7702C9.66461 31.3413 10.3018 31.7974 11.0115 32.1095C11.7212 32.4216 12.488 32.583 13.2633 32.5833H34.5766C37.4516 32.5833 39.9816 30.2258 40.1924 27.3508L40.8249 18.4C40.8432 18.1912 40.8174 17.9809 40.7493 17.7827C40.6812 17.5844 40.5723 17.4027 40.4297 17.2491C40.287 17.0956 40.1137 16.9737 39.9209 16.8913C39.7282 16.8089 39.5203 16.7679 39.3108 16.7708Z" fill="#F13EB4"/>
</svg>
